<?xml version="1.0" standalone="no"?>
<!DOCTYPE svg PUBLIC "-//W3C//DTD SVG 20010904//EN"
 "http://www.w3.org/TR/2001/REC-SVG-20010904/DTD/svg10.dtd">
<svg version="1.0" xmlns="http://www.w3.org/2000/svg"
 width="64.000000pt" height="64.000000pt" viewBox="0 0 64.000000 64.000000"
 preserveAspectRatio="xMidYMid meet">

<g transform="translate(0.000000,64.000000) scale(0.100000,-0.100000)"
fill="#000000" stroke="none">
<path d="M156 548 c-10 -14 -16 -44 -16 -79 l0 -57 -45 -22 c-27 -13 -52 -34
-61 -51 -13 -26 -13 -32 0 -58 9 -17 34 -38 61 -51 l45 -22 0 -57 c0 -72 19
-101 64 -101 19 0 49 11 70 25 45 31 47 31 92 0 21 -14 51 -25 70 -25 45 0 64
29 64 101 l0 57 45 22 c27 13 52 34 61 51 13 26 13 32 0 58 -9 17 -34 38 -61
51 l-45 22 0 57 c0 72 -19 101 -64 101 -19 0 -49 -11 -70 -25 -20 -14 -41 -25
-46 -25 -5 0 -26 11 -46 25 -47 32 -97 33 -118 3z m117 -13 l37 -26 -32 -39
c-17 -22 -36 -40 -42 -40 -6 0 -28 -3 -48 -6 l-38 -7 0 56 c0 89 47 113 123
62z m199 8 c22 -20 27 -123 6 -123 -56 1 -90 15 -119 51 l-30 38 38 25 c43 30
79 33 105 9z m-125 -75 c13 -12 23 -25 23 -29 0 -3 -22 -7 -50 -7 -27 0 -50 3
-50 6 0 7 42 52 49 52 2 0 15 -10 28 -22z m-128 -85 c-33 -56 -36 -57 -48 -22
-17 50 -18 49 57 58 9 1 7 -11 -9 -36z m201 -18 l31 -55 -31 -55 -31 -55 -69
0 -69 0 -31 55 -31 55 31 55 31 55 69 0 69 0 31 -55z m58 39 c2 -1 -1 -19 -8
-39 -13 -40 -15 -39 -50 18 l-22 38 38 -7 c22 -3 41 -8 42 -10z m-316 -50 c15
-41 15 -49 0 -87 -9 -23 -17 -43 -18 -45 -3 -5 -67 29 -86 46 -23 19 -23 65 0
84 16 15 72 47 82 48 3 0 13 -21 22 -46z m371 30 c49 -25 67 -45 67 -74 0 -15
-8 -34 -17 -42 -20 -17 -84 -51 -87 -46 -1 2 -9 22 -18 45 -15 38 -15 46 0 87
9 25 18 46 20 46 2 0 17 -7 35 -16z m-313 -148 l23 -38 -34 7 c-46 10 -51 16
-38 54 13 35 15 34 49 -23z m260 -12 c0 -9 -69 -28 -76 -21 -1 1 10 22 24 46
l26 45 13 -30 c6 -16 12 -34 13 -40z m-267 -30 c27 -5 45 -17 68 -45 l30 -38
-38 -25 c-74 -51 -123 -26 -123 61 0 57 0 57 63 47z m277 -46 c0 -88 -49 -113
-123 -62 l-38 25 31 39 c29 37 46 44 108 49 20 1 22 -3 22 -51z m-120 33 c0
-4 -11 -18 -25 -31 l-25 -23 -25 23 c-14 13 -25 27 -25 31 0 3 23 7 50 7 28 0
50 -4 50 -7z"/>
<path d="M292 370 c-49 -20 -48 -101 3 -120 55 -21 106 30 85 85 -7 19 -50 49
-63 44 -1 0 -12 -4 -25 -9z m71 -31 c16 -26 0 -68 -30 -75 -33 -9 -57 6 -61
38 -6 50 65 78 91 37z"/>
<path d="M538 513 c7 -3 16 -2 19 1 4 3 -2 6 -13 5 -11 0 -14 -3 -6 -6z"/>
<path d="M538 463 c7 -3 16 -2 19 1 4 3 -2 6 -13 5 -11 0 -14 -3 -6 -6z"/>
<path d="M88 183 c7 -3 16 -2 19 1 4 3 -2 6 -13 5 -11 0 -14 -3 -6 -6z"/>
<path d="M88 133 c7 -3 16 -2 19 1 4 3 -2 6 -13 5 -11 0 -14 -3 -6 -6z"/>
<path d="M90 79 c0 -5 5 -7 10 -4 6 3 10 8 10 11 0 2 -4 4 -10 4 -5 0 -10 -5
-10 -11z"/>
<path d="M115 40 c-3 -5 -2 -10 4 -10 5 0 13 5 16 10 3 6 2 10 -4 10 -5 0 -13
-4 -16 -10z"/>
</g>
</svg>
